<svg xmlns="http://www.w3.org/2000/svg" viewBox="0 0 39.69 41.92"><defs><style>.cls-1{fill:#008240;}</style></defs><title>Asset 1</title><g id="Layer_2" data-name="Layer 2"><g id="Layer_1-2" data-name="Layer 1"><g id="g1945"><path id="path1947" class="cls-1" d="M1.3,38c-.59-.86,1.77-1.35,2.2-2.31C5.66,31.62,1.84,33.28.22,23.93-2.89,6.24,27.38,6.24,31.41,5.54,35.12,4.89,31.36,0,34.26,0c1,0,0,2.53,1,2.9S36.84.59,37.86,1.45c1.4,1.18-1.34,2.26-.59,3,.54.54,1.83-.48,2.26.21.75,1.13-1.29,1.88-3.12,2.2C29.74,8,44,37.16,20.82,41.19c-6.13,1.13-9-4.25-13.55-1.61-1.13.65-1.94,3.12-2.64,2.1-.43-.65.7-1.67,0-2.1-.48-.27-1.18.91-1.67.48s.16-1-.21-1.45S1.68,38.55,1.3,38Zm9-24.3C14,11,21,8.82,19.53,8.87,14.42,9,4,13.23,3.56,19.68,3.4,21.72,6.68,16.4,10.33,13.71Zm6.45,8.07C23.4,12.64,33.24,9.36,32.11,8.23c-1.34-1.34-7.26.48-7.26.48C15.66,11.94,5.66,18,5,25.49c-.21,2.2.43,6.34,3.23,8.06C10.17,34.74,13.51,26.29,16.79,21.78ZM24,36.29c8.6-3.06,8.5-14.25,7.1-11.13s-2.31,5.54-5.32,7.26c-2.37,1.35-4,1.51-6.94,1.45-2.42-.05-4.62-2-5.32,1C12.81,38.18,20.87,37.42,24,36.29Zm-6.94-6.13c2.47.43,10.38-1.4,13.07-10.81,2.74-9.68,1.34-7.74-6.61.48C19.26,24.3,15.87,30,17.11,30.17Z"/></g></g></g></svg>